<?xml version="1.0" encoding="UTF-8" standalone="no"?>
<!-- Created with Inkscape (http://www.inkscape.org/) -->

<svg
   xmlns:dc="http://purl.org/dc/elements/1.1/"
   xmlns:cc="http://creativecommons.org/ns#"
   xmlns:rdf="http://www.w3.org/1999/02/22-rdf-syntax-ns#"
   xmlns:svg="http://www.w3.org/2000/svg"
   xmlns="http://www.w3.org/2000/svg"
   xmlns:sodipodi="http://sodipodi.sourceforge.net/DTD/sodipodi-0.dtd"
   xmlns:inkscape="http://www.inkscape.org/namespaces/inkscape"
   width="400"
   height="400"
   id="svg6386"
   version="1.1"
   inkscape:version="0.48.4 r9939"
   sodipodi:docname="Light bulb.svg">
  <title
     id="title6412">Light bulb</title>
  <defs
     id="defs6388" />
  <sodipodi:namedview
     id="base"
     pagecolor="#ffffff"
     bordercolor="#666666"
     borderopacity="1.0"
     inkscape:pageopacity="0.0"
     inkscape:pageshadow="2"
     inkscape:zoom="0.98112735"
     inkscape:cx="-244.4331"
     inkscape:cy="297.49451"
     inkscape:document-units="px"
     inkscape:current-layer="layer1"
     showgrid="false"
     inkscape:window-width="944"
     inkscape:window-height="1041"
     inkscape:window-x="0"
     inkscape:window-y="0"
     inkscape:window-maximized="0" />
  <metadata
     id="metadata6391">
    <rdf:RDF>
      <cc:Work
         rdf:about="">
        <dc:format>image/svg+xml</dc:format>
        <dc:type
           rdf:resource="http://purl.org/dc/dcmitype/StillImage" />
        <dc:title>Light bulb</dc:title>
        <dc:date>2017-01-16</dc:date>
        <dc:creator>
          <cc:Agent>
            <dc:title>m1981</dc:title>
          </cc:Agent>
        </dc:creator>
        <dc:rights>
          <cc:Agent>
            <dc:title>Public domain</dc:title>
          </cc:Agent>
        </dc:rights>
        <dc:publisher>
          <cc:Agent>
            <dc:title>Inkscape</dc:title>
          </cc:Agent>
        </dc:publisher>
        <dc:subject>
          <rdf:Bag>
            <rdf:li>icon</rdf:li>
            <rdf:li>bulb</rdf:li>
            <rdf:li>light</rdf:li>
            <rdf:li></rdf:li>
          </rdf:Bag>
        </dc:subject>
      </cc:Work>
    </rdf:RDF>
  </metadata>
  <g
     inkscape:label="Calque 1"
     inkscape:groupmode="layer"
     id="layer1"
     transform="translate(0,-652.36218)">
    <path
       style="font-size:medium;font-style:normal;font-variant:normal;font-weight:normal;font-stretch:normal;text-indent:0;text-align:start;text-decoration:none;line-height:normal;letter-spacing:normal;word-spacing:normal;text-transform:none;direction:ltr;block-progression:tb;writing-mode:lr-tb;text-anchor:start;baseline-shift:baseline;color:#000000;fill:#4d4d4d;fill-opacity:1;fill-rule:evenodd;stroke:none;visibility:visible;display:inline;overflow:visible;enable-background:accumulate;font-family:sans-serif"
       d="m 199.76563,687.0977 c -24.67358,0.56075 -50.86715,10.11163 -71.25,28.96875 -20.38286,18.85711 -34.562498,47.29504 -34.562498,83.75 0,31.49868 16.149768,53.90963 30.406248,74.75 13.89469,20.31149 26.19314,39.23996 26.8125,66.75 -0.4143,0.80918 -0.50439,0.88673 -1,2 -1.20903,2.71573 -2.86253,5.58363 -2.8125,11 0.0505,5.47112 2.47375,8.6853 3.5,10.40625 0.10039,0.16835 0.0497,0.14243 0.125,0.28125 -0.0752,0.13874 -0.0246,0.0817 -0.125,0.25 -1.02625,1.72044 -3.44947,4.96644 -3.5,10.43746 -0.05,5.4163 1.60348,8.25311 2.8125,10.9688 1.209,2.7157 2.40625,4.8437 2.40625,4.8437 1.32286,2.3184 3.54689,4.0273 6.125,4.7188 3.22533,0.8642 5.88946,1.6921 8.1875,2.5312 0.99122,0.60931 2.07917,1.04671 3.21875,1.28129 5.87059,2.5429 8.38911,4.9581 10.5625,7.2187 1.6196,1.6847 3.1078,3.8237 6.3125,6.25 3.2047,2.4264 8.16063,4.125 13,4.125 4.83935,0 9.82655,-1.6986 13.03125,-4.125 3.2047,-2.4263 4.6929,-4.5653 6.3125,-6.25 3.2392,-3.3693 7.16158,-7.0637 21.96875,-11.03119 2.57882,-0.691 4.77042,-2.39999 6.09375,-4.7188 0,0 1.22849,-2.128 2.4375,-4.8437 1.20902,-2.71569 2.86245,-5.5525 2.8125,-10.9688 -0.0506,-5.47265 -2.47329,-8.71704 -3.5,-10.43746 -0.0999,-0.16734 -0.0813,-0.11189 -0.15625,-0.25 0.075,-0.13819 0.0564,-0.11385 0.15625,-0.28125 1.02675,-1.72095 3.44952,-4.93344 3.5,-10.40625 0.0501,-5.41648 -1.60346,-8.28426 -2.8125,-11 -0.4964,-1.11502 -0.58532,-1.19019 -1,-2 0.6205,-27.50783 12.88725,-46.43952 26.78124,-66.75 14.25648,-20.84037 30.4375,-43.25132 30.4375,-74.75 0,-36.45496 -14.17965,-64.89289 -34.5625,-83.75 -20.38286,-18.85712 -46.57643,-28.408 -71.25,-28.96875 -0.15167,-0.003 -0.31708,-0.003 -0.46875,0 z m 0.21875,20 c 19.71377,0.50379 41.44173,8.42417 57.90625,23.65625 16.52694,15.28984 28.15624,37.67796 28.15624,69.0625 0,24.69776 -12.52992,42.37625 -26.9375,63.4375 -10.69843,15.63915 -22.27898,33.13946 -27.53125,55.3125 l -32.53125,0 c -5.57819,-0.0789 -10.125,4.42125 -10.125,10 0,5.57874 4.54681,10.07893 10.125,10 l 29.78125,0 c -0.0704,1.60463 -0.125,3.22436 -0.125,4.875 1.1e-4,1.73934 0.44994,3.4271 1.3125,4.9375 0,0 0.76755,1.34708 1.53125,3.0625 0.34873,0.78332 0.5758,1.68872 0.75,2.34375 -0.11376,0.23925 -0.0998,0.27862 -0.34375,0.6875 -1.04252,1.74738 -3.46875,5.03898 -3.46875,10.53125 0,5.49217 2.42622,8.75307 3.46875,10.49996 0.24365,0.40831 0.23004,0.4485 0.34375,0.6875 -0.16435,0.61801 -0.39986,1.463 -0.71875,2.2188 -14.27575,4.5626 -22.3146,10.4839 -26.65625,15 -2.40644,2.5031 -3.73851,3.9819 -3.96875,4.1562 -0.0576,0.044 -0.06,0.081 -0.0312,0.094 -0.0666,-0.013 -0.26325,-0.031 -0.9375,-0.031 -0.67425,0 -0.87094,0.018 -0.9375,0.031 0.0288,-0.013 0.0576,-0.05 0,-0.094 -0.23024,-0.1743 -1.56231,-1.6531 -3.96875,-4.1562 -0.87793,-0.91319 -1.95317,-1.9011 -3.15625,-2.9063 l 24.875,-14.1875 c 8.87781,-4.8948 5.69314,-18.36917 -4.4375,-18.74996 -1.912,-0.0721 -3.82019,0.40383 -5.46875,1.375 l -35.75,20.37496 c -0.88966,-0.3125 -1.80685,-0.60479 -2.75,-0.9062 -0.31864,-0.75519 -0.55441,-1.6009 -0.71875,-2.2188 0.11372,-0.2394 0.0988,-0.27679 0.34375,-0.6875 0.88934,-1.49087 2.80536,-4.10449 3.34375,-8.24996 l 10.59375,-6.03125 c 8.87779,-4.89485 5.66188,-18.36919 -4.46875,-18.75 -1.912,-0.0721 -3.78893,0.40383 -5.4375,1.375 l -0.8125,0.4375 c 0.0289,-0.28887 0.0276,-0.55347 0.0312,-0.84375 0,-34.72128 -15.99866,-59.12625 -30.40625,-80.1875 -14.40759,-21.06125 -26.90625,-38.73974 -26.90625,-63.4375 0,-31.38454 11.6293,-53.77266 28.15625,-69.0625 16.464,-15.2316 38.16171,-23.15201 57.875,-23.65625 z m -35.3125,93.71875 a 5.0004999,5.0004999 0 0 0 -4.5625,6.75 l 21.75,57.84375 a 5.0090007,5.0090007 0 1 0 9.375,-3.53125 l -17.65625,-46.9375 c 2.80124,1.00442 5.70692,1.84375 8.8125,1.84375 4.63387,0 8.99362,-1.75868 12.875,-3.34375 2.61803,-1.06916 3.52347,-1.57379 4.71875,-2.15625 1.19526,0.58246 2.10069,1.08709 4.71875,2.15625 3.88139,1.58507 8.24114,3.34375 12.875,3.34375 3.10557,0 6.01126,-0.83933 8.8125,-1.84375 l -5.78125,15.34375 a 5.0090007,5.0090007 0 1 0 9.375,3.53125 l 9.875,-26.25 a 5.0004999,5.0004999 0 0 0 -6.96875,-6.21875 c 0,0 -2.7694,1.40386 -6.21875,2.8125 -3.44934,1.40864 -7.86305,2.625 -9.09375,2.625 -1.23072,0 -5.6444,-1.21636 -9.09375,-2.625 -3.44934,-1.40864 -6.21875,-2.8125 -6.21875,-2.8125 a 5.0004999,5.0004999 0 0 0 -4.5625,0 c 0,0 -2.7694,1.40386 -6.21875,2.8125 -3.44934,1.40864 -7.86302,2.625 -9.09375,2.625 -1.23072,0 -5.6444,-1.21636 -9.09375,-2.625 -3.44934,-1.40864 -6.21875,-2.8125 -6.21875,-2.8125 a 5.0004999,5.0004999 0 0 0 -2.40625,-0.53125 z"
       id="path3336"
       inkscape:connector-curvature="0" />
  </g>
</svg>
